<svg width="13" height="14" viewBox="0 0 13 14" fill="none" xmlns="http://www.w3.org/2000/svg">
<mask id="path-1-inside-1_268_2547" fill="white">
<path d="M6.5 13.5C4.69444 13.5 3.15972 12.8681 1.89583 11.6042C0.631944 10.3403 0 8.80556 0 7C0 5.19444 0.631944 3.65972 1.89583 2.39583C3.15972 1.13194 4.69444 0.5 6.5 0.5C6.66852 0.5 6.83415 0.506019 6.99689 0.518056C7.15963 0.530093 7.319 0.548148 7.475 0.572222C6.98148 0.921296 6.58715 1.37581 6.292 1.93578C5.99685 2.49574 5.84952 3.10048 5.85 3.75C5.85 4.83333 6.22917 5.75417 6.9875 6.5125C7.74583 7.27083 8.66667 7.65 9.75 7.65C10.412 7.65 11.0199 7.50243 11.5736 7.20728C12.1273 6.91213 12.5787 6.51804 12.9278 6.025C12.9519 6.18148 12.9699 6.34085 12.9819 6.50311C12.994 6.66537 13 6.831 13 7C13 8.80556 12.3681 10.3403 11.1042 11.6042C9.84028 12.8681 8.30556 13.5 6.5 13.5ZM6.5 12.0556C7.55926 12.0556 8.51018 11.7635 9.35278 11.1795C10.1954 10.5955 10.8093 9.83424 11.1944 8.89583C10.9537 8.95602 10.713 9.00417 10.4722 9.04028C10.2315 9.07639 9.99074 9.09444 9.75 9.09444C8.26944 9.09444 7.00844 8.57372 5.967 7.53228C4.92556 6.49083 4.40507 5.23007 4.40556 3.75C4.40556 3.50926 4.42361 3.26852 4.45972 3.02778C4.49583 2.78704 4.54398 2.5463 4.60417 2.30556C3.66528 2.69074 2.90381 3.30463 2.31978 4.14722C1.73574 4.98981 1.44396 5.94074 1.44444 7C1.44444 8.3963 1.93796 9.58796 2.925 10.575C3.91204 11.562 5.1037 12.0556 6.5 12.0556Z"/>
</mask>
<path d="M6.5 13.5C4.69444 13.5 3.15972 12.8681 1.89583 11.6042C0.631944 10.3403 0 8.80556 0 7C0 5.19444 0.631944 3.65972 1.89583 2.39583C3.15972 1.13194 4.69444 0.5 6.5 0.5C6.66852 0.5 6.83415 0.506019 6.99689 0.518056C7.15963 0.530093 7.319 0.548148 7.475 0.572222C6.98148 0.921296 6.58715 1.37581 6.292 1.93578C5.99685 2.49574 5.84952 3.10048 5.85 3.75C5.85 4.83333 6.22917 5.75417 6.9875 6.5125C7.74583 7.27083 8.66667 7.65 9.75 7.65C10.412 7.65 11.0199 7.50243 11.5736 7.20728C12.1273 6.91213 12.5787 6.51804 12.9278 6.025C12.9519 6.18148 12.9699 6.34085 12.9819 6.50311C12.994 6.66537 13 6.831 13 7C13 8.80556 12.3681 10.3403 11.1042 11.6042C9.84028 12.8681 8.30556 13.5 6.5 13.5ZM6.5 12.0556C7.55926 12.0556 8.51018 11.7635 9.35278 11.1795C10.1954 10.5955 10.8093 9.83424 11.1944 8.89583C10.9537 8.95602 10.713 9.00417 10.4722 9.04028C10.2315 9.07639 9.99074 9.09444 9.75 9.09444C8.26944 9.09444 7.00844 8.57372 5.967 7.53228C4.92556 6.49083 4.40507 5.23007 4.40556 3.75C4.40556 3.50926 4.42361 3.26852 4.45972 3.02778C4.49583 2.78704 4.54398 2.5463 4.60417 2.30556C3.66528 2.69074 2.90381 3.30463 2.31978 4.14722C1.73574 4.98981 1.44396 5.94074 1.44444 7C1.44444 8.3963 1.93796 9.58796 2.925 10.575C3.91204 11.562 5.1037 12.0556 6.5 12.0556Z" stroke="black" stroke-width="2.08" mask="url(#path-1-inside-1_268_2547)"/>
</svg>
