<svg width="15" height="15" viewBox="0 0 15 15" fill="none" xmlns="http://www.w3.org/2000/svg">
<path d="M7.50033 0.416748C3.59033 0.416748 0.416992 3.59008 0.416992 7.50008C0.416992 11.4101 3.59033 14.5834 7.50033 14.5834C11.4103 14.5834 14.5837 11.4101 14.5837 7.50008C14.5837 3.59008 11.4103 0.416748 7.50033 0.416748ZM1.83366 7.50008C1.83366 4.36925 4.36949 1.83341 7.50033 1.83341C8.81074 1.83341 10.0149 2.27966 10.9712 3.0305L3.03074 10.9709C2.25273 9.98152 1.83099 8.75873 1.83366 7.50008ZM7.50033 13.1667C6.18991 13.1667 4.98574 12.7205 4.02949 11.9697L11.9699 4.02925C12.7479 5.01864 13.1697 6.24143 13.167 7.50008C13.167 10.6309 10.6312 13.1667 7.50033 13.1667Z" fill="black"/>
</svg>
