<svg width="24" height="24" viewBox="0 0 24 24" fill="none" xmlns="http://www.w3.org/2000/svg">
<path d="M5 4.75H4.75V5V19V19.25H5H11C11.4119 19.25 11.75 19.5881 11.75 20C11.75 20.4119 11.4119 20.75 11 20.75H5C4.03807 20.75 3.25 19.9619 3.25 19V5C3.25 4.03807 4.03807 3.25 5 3.25H11C11.4119 3.25 11.75 3.58807 11.75 4C11.75 4.41193 11.4119 4.75 11 4.75H5Z" fill="black" stroke="black" stroke-width="0.5"/>
<path d="M20.65 11.65L17.86 8.86004C17.7905 8.78859 17.7012 8.73952 17.6036 8.71911C17.506 8.69869 17.4045 8.70787 17.3121 8.74545C17.2198 8.78304 17.1408 8.84733 17.0851 8.93009C17.0295 9.01286 16.9999 9.11033 17 9.21004V11H10C9.45 11 9 11.45 9 12C9 12.55 9.45 13 10 13H17V14.79C17 15.24 17.54 15.46 17.85 15.14L20.64 12.35C20.84 12.16 20.84 11.84 20.65 11.65Z" fill="black"/>
</svg>
