<svg width="24" height="24" viewBox="0 0 24 24" fill="none" xmlns="http://www.w3.org/2000/svg">
<path d="M15.25 12.5C17.4756 13.6292 19 15.9841 19 19.1818V23H4V19.1818C4 15.9803 5.52906 13.6216 7.75 12.5M6.8125 13.4545L11.5234 18.4726L16.1875 13.4545M11.5 18.2273V23M11.5 13.4545C12.2387 13.4545 12.9701 13.3064 13.6526 13.0186C14.3351 12.7308 14.9551 12.3089 15.4775 11.7771C15.9998 11.2452 16.4141 10.6139 16.6968 9.919C16.9795 9.22414 17.125 8.47939 17.125 7.72727C17.125 6.97516 16.9795 6.2304 16.6968 5.53554C16.4141 4.84068 15.9998 4.20931 15.4775 3.67748C14.9551 3.14565 14.3351 2.72378 13.6526 2.43596C12.9701 2.14814 12.2387 2 11.5 2C10.0082 2 8.57742 2.60341 7.52252 3.67748C6.46763 4.75155 5.875 6.20831 5.875 7.72727C5.875 9.24624 6.46763 10.703 7.52252 11.7771C8.57742 12.8511 10.0082 13.4545 11.5 13.4545Z" stroke="black" stroke-width="1.5"/>
</svg>
