<svg width="24" height="24" viewBox="0 0 24 24" fill="none" xmlns="http://www.w3.org/2000/svg">
<path d="M16.25 15.5C16.0511 15.5 15.8603 15.579 15.7197 15.7197C15.579 15.8603 15.5 16.0511 15.5 16.25C15.5 16.4489 15.579 16.6397 15.7197 16.7803C15.8603 16.921 16.0511 17 16.25 17H19.25C19.4489 17 19.6397 16.921 19.7803 16.7803C19.921 16.6397 20 16.4489 20 16.25C20 16.0511 19.921 15.8603 19.7803 15.7197C19.6397 15.579 19.4489 15.5 19.25 15.5H16.25ZM2 8.75C2 7.75544 2.39509 6.80161 3.09835 6.09835C3.80161 5.39509 4.75544 5 5.75 5H19.25C20.2446 5 21.1984 5.39509 21.9016 6.09835C22.6049 6.80161 23 7.75544 23 8.75V16.25C23 17.2446 22.6049 18.1984 21.9016 18.9017C21.1984 19.6049 20.2446 20 19.25 20H5.75C4.75544 20 3.80161 19.6049 3.09835 18.9017C2.39509 18.1984 2 17.2446 2 16.25V8.75ZM21.5 9.5V8.75C21.5 8.15326 21.2629 7.58097 20.841 7.15901C20.419 6.73705 19.8467 6.5 19.25 6.5H5.75C5.15326 6.5 4.58097 6.73705 4.15901 7.15901C3.73705 7.58097 3.5 8.15326 3.5 8.75V9.5H21.5ZM3.5 11V16.25C3.5 16.8467 3.73705 17.419 4.15901 17.841C4.58097 18.2629 5.15326 18.5 5.75 18.5H19.25C19.8467 18.5 20.419 18.2629 20.841 17.841C21.2629 17.419 21.5 16.8467 21.5 16.25V11H3.5Z" fill="black"/>
</svg>
