<svg width="24" height="24" viewBox="0 0 24 24" fill="none" xmlns="http://www.w3.org/2000/svg">
<path d="M11.804 10.2919C14.0592 10.2919 15.8874 8.2118 15.8874 5.64593C15.8874 3.08005 14.0592 1 11.804 1C9.54887 1 7.7207 3.08005 7.7207 5.64593C7.7207 8.2118 9.54887 10.2919 11.804 10.2919Z" stroke="black" stroke-width="1.5" stroke-linecap="round" stroke-linejoin="round"/>
<path d="M4 22.4347V22.7919H19V22.4347C19 19.2344 19 17.6343 18.6367 16.4119C18.3171 15.3367 17.8072 14.4625 17.18 13.9147C16.4669 13.2919 15.5335 13.2919 13.6667 13.2919H9.33333C7.4665 13.2919 6.53308 13.2919 5.82004 13.9147C5.19283 14.4625 4.68289 15.3367 4.36331 16.4119C4 17.6343 4 19.2344 4 22.4347Z" stroke="black" stroke-width="1.5" stroke-linecap="round" stroke-linejoin="round"/>
</svg>
