<svg width="13" height="13" viewBox="0 0 13 13" fill="none" xmlns="http://www.w3.org/2000/svg">
<path d="M1.54167 11.4583H2.55104L9.475 4.53438L8.46562 3.525L1.54167 10.449V11.4583ZM0.125 12.875V9.86458L9.475 0.532292C9.61667 0.402431 9.77321 0.302083 9.94463 0.23125C10.116 0.160417 10.296 0.125 10.4844 0.125C10.6728 0.125 10.8558 0.160417 11.0333 0.23125C11.2109 0.302083 11.3644 0.408333 11.4938 0.55L12.4677 1.54167C12.6094 1.67153 12.7128 1.825 12.778 2.00208C12.8431 2.17917 12.8755 2.35625 12.875 2.53333C12.875 2.72222 12.8427 2.90237 12.778 3.07379C12.7133 3.24521 12.6098 3.40151 12.4677 3.54271L3.13542 12.875H0.125ZM8.96146 4.03854L8.46562 3.525L9.475 4.53438L8.96146 4.03854Z" fill="black"/>
</svg>
