<svg width="17" height="14" viewBox="0 0 17 14" fill="none" xmlns="http://www.w3.org/2000/svg">
<path d="M14.4298 0.457153H2.54643C1.87107 0.457153 1.22338 0.723272 0.745832 1.19697C0.268284 1.67066 0 2.31313 0 2.98304V11.4026C0 12.0725 0.268284 12.715 0.745832 13.1887C1.22338 13.6624 1.87107 13.9285 2.54643 13.9285H14.4298C15.1051 13.9285 15.7528 13.6624 16.2304 13.1887C16.7079 12.715 16.9762 12.0725 16.9762 11.4026V2.98304C16.9762 2.31313 16.7079 1.67066 16.2304 1.19697C15.7528 0.723272 15.1051 0.457153 14.4298 0.457153ZM13.8611 2.14107L8.4881 6.14039L3.11513 2.14107H13.8611ZM14.4298 12.2446H2.54643C2.32131 12.2446 2.10541 12.1559 1.94623 11.998C1.78705 11.8401 1.69762 11.6259 1.69762 11.4026V3.19353L7.97881 7.86641C8.12574 7.97571 8.30444 8.0348 8.4881 8.0348C8.67175 8.0348 8.85046 7.97571 8.99738 7.86641L15.2786 3.19353V11.4026C15.2786 11.6259 15.1891 11.8401 15.03 11.998C14.8708 12.1559 14.6549 12.2446 14.4298 12.2446Z" fill="white"/>
</svg>
