<svg width="26" height="20" viewBox="0 0 26 20" fill="none" xmlns="http://www.w3.org/2000/svg">
<path d="M10.1875 10C10.1875 9.25408 10.4838 8.53871 11.0113 8.01126C11.5387 7.48382 12.2541 7.1875 13 7.1875C13.7459 7.1875 14.4613 7.48382 14.9887 8.01126C15.5162 8.53871 15.8125 9.25408 15.8125 10C15.8125 10.7459 15.5162 11.4613 14.9887 11.9887C14.4613 12.5162 13.7459 12.8125 13 12.8125C12.2541 12.8125 11.5387 12.5162 11.0113 11.9887C10.4838 11.4613 10.1875 10.7459 10.1875 10Z" fill="#808080"/>
<path fill-rule="evenodd" clip-rule="evenodd" d="M0.5 10C0.5 12.05 1.03125 12.7387 2.09375 14.12C4.215 16.875 7.7725 20 13 20C18.2275 20 21.785 16.875 23.9062 14.12C24.9688 12.74 25.5 12.0487 25.5 10C25.5 7.95 24.9688 7.26125 23.9062 5.88C21.785 3.125 18.2275 0 13 0C7.7725 0 4.215 3.125 2.09375 5.88C1.03125 7.2625 0.5 7.95125 0.5 10ZM13 5.3125C11.7568 5.3125 10.5645 5.80636 9.68544 6.68544C8.80636 7.56451 8.3125 8.7568 8.3125 10C8.3125 11.2432 8.80636 12.4355 9.68544 13.3146C10.5645 14.1936 11.7568 14.6875 13 14.6875C14.2432 14.6875 15.4355 14.1936 16.3146 13.3146C17.1936 12.4355 17.6875 11.2432 17.6875 10C17.6875 8.7568 17.1936 7.56451 16.3146 6.68544C15.4355 5.80636 14.2432 5.3125 13 5.3125Z" fill="#808080"/>
</svg>
