<svg width="25" height="25" viewBox="0 0 25 25" fill="none" xmlns="http://www.w3.org/2000/svg">
<path d="M3.85682 5.2468L0.244951 1.63378L1.87873 0L24.755 22.8752L23.1213 24.5101L19.2968 20.6856C17.2643 21.9747 14.9063 22.6573 12.4994 22.6533C6.26935 22.6533 1.0861 18.1703 0 12.2545C0.497892 9.56437 1.85051 7.10672 3.85682 5.2468ZM15.6861 17.0749L13.9945 15.3834C13.3476 15.6929 12.6205 15.7942 11.9135 15.6731C11.2066 15.5521 10.5546 15.2148 10.0475 14.7076C9.5403 14.2004 9.20295 13.5484 9.08192 12.8415C8.96088 12.1346 9.06212 11.4075 9.37168 10.7605L7.68013 9.06896C6.94495 10.1799 6.61629 11.5108 6.74981 12.8362C6.88334 14.1617 7.47083 15.4003 8.41281 16.3422C9.35479 17.2842 10.5934 17.8717 11.9188 18.0052C13.2443 18.1388 14.5752 17.8101 15.6861 17.0749ZM7.84767 2.73374C9.28849 2.16758 10.8587 1.85562 12.4994 1.85562C18.7295 1.85562 23.9127 6.33868 25 12.2545C24.646 14.1794 23.8502 15.996 22.6753 17.5614L18.2153 13.1014C18.2562 12.8241 18.2766 12.5418 18.2766 12.2545C18.2767 11.4242 18.0979 10.6037 17.7523 9.84882C17.4068 9.09392 16.9025 8.42237 16.274 7.87992C15.6455 7.33747 14.9074 6.93687 14.1101 6.70539C13.3128 6.47392 12.4749 6.41702 11.6536 6.53857L7.84767 2.73374Z" fill="#808080"/>
</svg>
