<svg width="21" height="21" viewBox="0 0 21 21" fill="none" xmlns="http://www.w3.org/2000/svg">
<path d="M15.1875 0.800781V2.36328H17.9711L15.3344 5.02422C14.392 4.31248 13.2435 3.9269 12.0625 3.92578C10.6016 3.92578 9.2375 4.50391 8.20469 5.5375C7.69417 6.04186 7.28886 6.64255 7.01225 7.30474C6.73565 7.96693 6.59325 8.67744 6.59332 9.39508C6.5934 10.1127 6.73594 10.8232 7.01268 11.4853C7.28941 12.1475 7.69485 12.7481 8.20547 13.2523C8.88516 13.932 9.69453 14.4203 10.5977 14.668C10.6867 14.6 10.7867 14.5289 10.8664 14.4492C11.1939 14.1162 11.4292 13.7037 11.5492 13.2523C10.6986 13.1477 9.90767 12.7606 9.30313 12.1531C8.56563 11.4164 8.15625 10.4383 8.15625 9.39453C8.15625 8.35078 8.56641 7.37422 9.30469 6.63672C10.0406 5.89688 11.0188 5.48828 12.0625 5.48828C13.1062 5.48828 14.0836 5.89844 14.8203 6.63672C15.1847 6.99754 15.4738 7.42711 15.671 7.90051C15.8681 8.3739 15.9693 8.88173 15.9687 9.39453C15.9687 10.0703 15.7773 10.6992 15.4562 11.2742C15.5312 11.6773 15.5781 12.1008 15.5781 12.5195C15.5781 12.9096 15.5456 13.2924 15.4805 13.668C15.6367 13.5406 15.7758 13.3961 15.9203 13.2523C16.9531 12.218 17.5312 10.8555 17.5312 9.39453C17.5312 8.19922 17.1375 7.06328 16.4328 6.12266L19.0938 3.48672V6.26953H20.6562V0.800781H15.1875ZM10.4023 7.24609C10.3133 7.31406 10.2133 7.38516 10.1336 7.46484C9.79609 7.80391 9.57578 8.21484 9.45078 8.6625C10.3023 8.77187 11.0797 9.14375 11.6969 9.76094C12.4352 10.4977 12.8453 11.4758 12.8453 12.5188C12.8453 13.5617 12.4352 14.5391 11.6969 15.2766C10.9594 16.0172 9.98125 16.4258 8.9375 16.4258C7.89375 16.4258 6.91641 16.0156 6.17969 15.2773C5.81495 14.9168 5.52558 14.4873 5.32842 14.0138C5.13126 13.5403 5.03024 13.0324 5.03125 12.5195C5.03125 11.8438 5.22266 11.2148 5.54375 10.6398C5.4662 10.2292 5.42541 9.81243 5.42188 9.39453C5.42188 9.00495 5.45443 8.62214 5.51953 8.24609C5.36328 8.37344 5.225 8.51797 5.07969 8.6625C4.04844 9.69453 3.46875 11.0586 3.46875 12.5195C3.46875 13.7148 3.8625 14.8508 4.56719 15.7914L3.25 17.1094L1.6875 15.5469L0.5625 16.6453L2.125 18.2078L0.5625 19.7703L1.6875 20.8953L3.25 19.3328L4.8125 20.8953L5.91016 19.7703L4.34766 18.2078L5.66641 16.8906C6.60788 17.6035 7.75661 17.9889 8.9375 17.9883C10.3984 17.9883 11.7625 17.4102 12.7953 16.3766C13.8281 15.3445 14.4062 13.9805 14.4062 12.5195C14.4062 11.0586 13.8281 9.69609 12.7945 8.66172C12.1148 7.98203 11.3055 7.49375 10.4023 7.24609Z" fill="white"/>
</svg>
