<svg width="17" height="22" viewBox="0 0 17 22" fill="none" xmlns="http://www.w3.org/2000/svg">
<path d="M8.5 1.05547e-08C6.26031 -0.000111073 4.11108 0.876613 2.51945 2.43962C0.927808 4.00263 0.0223969 6.12559 0 8.3471C0 14.1226 7.49063 20.5516 7.80938 20.8256C8.00183 20.9889 8.24675 21.0786 8.5 21.0786C8.75325 21.0786 8.99817 20.9889 9.19062 20.8256C9.5625 20.5516 17 14.1226 17 8.3471C16.9776 6.12559 16.0722 4.00263 14.4806 2.43962C12.8889 0.876613 10.7397 -0.000111073 8.5 1.05547e-08ZM8.5 18.6018C6.72563 16.9261 2.125 12.2782 2.125 8.3471C2.125 6.66999 2.79665 5.06156 3.99219 3.87567C5.18774 2.68977 6.80925 2.02354 8.5 2.02354C10.1908 2.02354 11.8123 2.68977 13.0078 3.87567C14.2034 5.06156 14.875 6.66999 14.875 8.3471C14.875 12.2466 10.2744 16.9261 8.5 18.6018Z" fill="white"/>
<path d="M8.49805 4.21558C7.76255 4.21558 7.04357 4.43192 6.43202 4.83724C5.82048 5.24257 5.34383 5.81867 5.06237 6.4927C4.78091 7.16673 4.70726 7.90841 4.85075 8.62396C4.99424 9.33951 5.34842 9.99678 5.8685 10.5127C6.38857 11.0285 7.05119 11.3799 7.77256 11.5222C8.49392 11.6645 9.24164 11.5915 9.92115 11.3123C10.6007 11.0331 11.1815 10.5603 11.5901 9.95368C11.9987 9.34707 12.2168 8.63389 12.2168 7.90432C12.2168 6.926 11.825 5.98776 11.1276 5.29598C10.4302 4.60421 9.48432 4.21558 8.49805 4.21558ZM8.49805 9.48521C8.18283 9.48521 7.8747 9.39249 7.61261 9.21878C7.35052 9.04507 7.14624 8.79817 7.02562 8.5093C6.90499 8.22043 6.87343 7.90257 6.93492 7.5959C6.99642 7.28924 7.14821 7.00755 7.3711 6.78646C7.59399 6.56537 7.87797 6.41481 8.18712 6.35381C8.49628 6.29281 8.81673 6.32411 9.10795 6.44377C9.39917 6.56342 9.64808 6.76605 9.8232 7.02603C9.99833 7.286 10.0918 7.59165 10.0918 7.90432C10.0918 8.3236 9.92389 8.7257 9.625 9.02218C9.32611 9.31865 8.92074 9.48521 8.49805 9.48521Z" fill="white"/>
</svg>
