<svg width="17" height="22" viewBox="0 0 17 22" fill="none" xmlns="http://www.w3.org/2000/svg">
<path d="M1.96229 21.8571C1.41829 21.8571 0.955238 21.666 0.573143 21.2839C0.191048 20.9018 0 20.4392 0 19.896V9.24672C0 8.70434 0.191048 8.2417 0.573143 7.8588C0.955238 7.4767 1.41829 7.28565 1.96229 7.28565H3.64286V4.85708C3.64286 3.50437 4.1144 2.35687 5.0575 1.41458C5.99979 0.471487 7.14729 -6.10352e-05 8.5 -6.10352e-05C9.85271 -6.10352e-05 11.0006 0.471487 11.9437 1.41458C12.8868 2.35768 13.358 3.50518 13.3571 4.85708V7.28565H15.0389C15.5813 7.28565 16.044 7.4767 16.4269 7.8588C16.809 8.24089 17 8.70394 17 9.24794V19.896C17 20.4384 16.809 20.901 16.4269 21.2839C16.0448 21.666 15.5821 21.8571 15.0389 21.8571H1.96229ZM1.96229 20.6428H15.0389C15.2567 20.6428 15.4356 20.5728 15.5756 20.4327C15.7157 20.2927 15.7857 20.1138 15.7857 19.896V9.24672C15.7857 9.02896 15.7157 8.85006 15.5756 8.71001C15.4356 8.56996 15.2567 8.49994 15.0389 8.49994H1.96107C1.74331 8.49994 1.5644 8.56996 1.42436 8.71001C1.28431 8.85006 1.21429 9.02937 1.21429 9.24794V19.896C1.21429 20.1138 1.28431 20.2927 1.42436 20.4327C1.5644 20.5728 1.74371 20.6428 1.96229 20.6428ZM8.5 16.3928C9.01243 16.3928 9.4439 16.2171 9.79443 15.8658C10.1458 15.5153 10.3214 15.0838 10.3214 14.5714C10.3214 14.0589 10.1458 13.6275 9.79443 13.2769C9.4431 12.9264 9.01162 12.7507 8.5 12.7499C7.98838 12.7491 7.5569 12.9248 7.20557 13.2769C6.85424 13.6275 6.67857 14.0589 6.67857 14.5714C6.67857 15.0838 6.85424 15.5153 7.20557 15.8658C7.5561 16.2171 7.98757 16.3928 8.5 16.3928ZM4.85714 7.28565H12.1429V4.85708C12.1429 3.84518 11.7887 2.98506 11.0804 2.27672C10.372 1.56839 9.5119 1.21422 8.5 1.21422C7.4881 1.21422 6.62798 1.56839 5.91964 2.27672C5.21131 2.98506 4.85714 3.84518 4.85714 4.85708V7.28565Z" fill="black"/>
</svg>
