<svg width="61" height="61" viewBox="0 0 61 61" fill="none" xmlns="http://www.w3.org/2000/svg">
<circle cx="30.3361" cy="30.3361" r="29.8361" stroke="#FBBC05"/>
<path d="M35.5 30C38.7643 31.7207 41 35.3091 41 40.1818V46H19V40.1818C19 35.3033 21.2426 31.7091 24.5 30M23.125 31.4545L30.0344 39.1011L36.875 31.4545M30 38.7273V46M30 31.4545C31.0834 31.4545 32.1562 31.2288 33.1571 30.7902C34.1581 30.3516 35.0675 29.7088 35.8336 28.8984C36.5997 28.088 37.2074 27.1259 37.622 26.0671C38.0366 25.0082 38.25 23.8734 38.25 22.7273C38.25 21.5812 38.0366 20.4463 37.622 19.3875C37.2074 18.3286 36.5997 17.3666 35.8336 16.5562C35.0675 15.7458 34.1581 15.1029 33.1571 14.6643C32.1562 14.2257 31.0834 14 30 14C27.812 14 25.7135 14.9195 24.1664 16.5562C22.6192 18.1928 21.75 20.4127 21.75 22.7273C21.75 25.0419 22.6192 27.2617 24.1664 28.8984C25.7135 30.5351 27.812 31.4545 30 31.4545Z" stroke="#FBBC05" stroke-width="1.8"/>
</svg>
