<svg width="19" height="18" viewBox="0 0 19 18" fill="none" xmlns="http://www.w3.org/2000/svg">
<path fill-rule="evenodd" clip-rule="evenodd" d="M9.8813 6.27938L15.9486 4.5202L14.4384 10.6542L12.5545 8.84568L9.51565 12.0112C9.41249 12.1186 9.26996 12.1794 9.12099 12.1794C8.97202 12.1794 8.8295 12.1186 8.72633 12.0112L6.49498 9.68686L3.21323 13.1054C3.00398 13.3233 2.65766 13.3304 2.4397 13.1211C2.22173 12.9119 2.21466 12.5656 2.42391 12.3476L6.10032 8.51801C6.20349 8.41055 6.34601 8.3498 6.49498 8.3498C6.64395 8.3498 6.78648 8.41055 6.88964 8.51801L9.12099 10.8423L11.7652 8.08793L9.8813 6.27938Z" fill="#1C1C1C"/>
</svg>
