<svg width="19" height="19" viewBox="0 0 19 19" fill="none" xmlns="http://www.w3.org/2000/svg">
<path d="M19 9.4905C19 4.25125 14.744 0 9.5 0C4.256 0 0 4.25125 0 9.4905C0 12.3761 1.311 14.9767 3.363 16.7224C3.382 16.7414 3.401 16.7414 3.401 16.7604C3.572 16.8934 3.743 17.0264 3.933 17.1594C4.028 17.2164 4.104 17.2912 4.199 17.3672C5.76959 18.4303 7.62244 18.999 9.519 19C11.4156 18.999 13.2684 18.4303 14.839 17.3672C14.934 17.3102 15.01 17.2354 15.105 17.1772C15.276 17.0454 15.466 16.9124 15.637 16.7794C15.656 16.7604 15.675 16.7604 15.675 16.7414C17.689 14.9756 19 12.3761 19 9.4905ZM9.5 17.8042C7.714 17.8042 6.08 17.2342 4.731 16.2854C4.75 16.1334 4.788 15.9826 4.826 15.8306C4.93959 15.4188 5.10562 15.0232 5.32 14.6538C5.529 14.2928 5.776 13.9698 6.08 13.6848C6.365 13.3998 6.707 13.1349 7.049 12.9259C7.41 12.7169 7.79 12.5649 8.208 12.4509C8.62939 12.3381 9.06376 12.281 9.5 12.2811C10.7953 12.2713 12.0431 12.7682 12.977 13.6658C13.414 14.1028 13.756 14.6154 14.003 15.2036C14.136 15.5456 14.231 15.9062 14.288 16.2854C12.8858 17.2712 11.2141 17.8015 9.5 17.8042ZM6.593 9.01669C6.42593 8.63328 6.34176 8.21889 6.346 7.80069C6.346 7.38387 6.422 6.96588 6.593 6.58588C6.764 6.20587 6.992 5.86506 7.277 5.58006C7.562 5.29506 7.904 5.06825 8.284 4.89725C8.664 4.72625 9.082 4.65025 9.5 4.65025C9.937 4.65025 10.336 4.72625 10.716 4.89725C11.096 5.06825 11.438 5.29625 11.723 5.58006C12.008 5.86506 12.236 6.20706 12.407 6.58588C12.578 6.96588 12.654 7.38387 12.654 7.80069C12.654 8.23769 12.578 8.63669 12.407 9.0155C12.2429 9.3904 12.011 9.73179 11.723 10.0225C11.4322 10.3101 11.0908 10.5416 10.716 10.7053C9.93073 11.0273 9.05027 11.0273 8.265 10.7053C7.89019 10.5416 7.54881 10.3101 7.258 10.0225C6.96973 9.7359 6.74339 9.39434 6.593 9.01669ZM15.409 15.3176C15.409 15.2796 15.39 15.2606 15.39 15.2226C15.2035 14.628 14.928 14.0651 14.573 13.5529C14.2177 13.0371 13.7814 12.5819 13.281 12.2051C12.8987 11.9174 12.4842 11.6751 12.046 11.4831C12.2444 11.3504 12.429 11.198 12.597 11.0283C12.8803 10.7487 13.129 10.4361 13.338 10.0973C13.7602 9.40658 13.9777 8.61015 13.965 7.80069C13.9712 7.20158 13.8548 6.60753 13.623 6.05506C13.3944 5.52265 13.0654 5.03924 12.654 4.63125C12.2422 4.22875 11.7589 3.90657 11.229 3.68125C10.6757 3.44951 10.0808 3.33353 9.481 3.34044C8.88109 3.3339 8.28621 3.45029 7.733 3.68244C7.19725 3.90501 6.71241 4.2343 6.308 4.65025C5.9034 5.0599 5.58093 5.5432 5.358 6.07406C5.12617 6.62653 5.00979 7.22058 5.016 7.81969C5.016 8.23769 5.073 8.63629 5.187 9.0155C5.301 9.4145 5.453 9.7755 5.662 10.1163C5.852 10.4583 6.118 10.7623 6.403 11.0473C6.574 11.2183 6.764 11.3699 6.973 11.5021C6.53279 11.6981 6.11807 11.9469 5.738 12.2431C5.244 12.6231 4.807 13.0779 4.446 13.5719C4.0877 14.0821 3.81199 14.6456 3.629 15.2416C3.61 15.2796 3.61 15.3176 3.61 15.3366C2.109 13.8177 1.178 11.7681 1.178 9.4905C1.178 4.91625 4.921 1.17681 9.5 1.17681C14.079 1.17681 17.822 4.91625 17.822 9.4905C17.8195 11.6755 16.9519 13.7705 15.409 15.3176Z" fill="black"/>
</svg>
