<svg width="21" height="26" viewBox="0 0 21 26" fill="none" xmlns="http://www.w3.org/2000/svg">
<path fill-rule="evenodd" clip-rule="evenodd" d="M9 1.5C9 0.671573 9.67157 0 10.5 0C11.3284 0 12 0.671573 12 1.5V2.15003C15.4234 2.84493 18 5.87156 18 9.5V19.5H20C20.5523 19.5 21 19.9477 21 20.5C21 21.0523 20.5523 21.5 20 21.5H1C0.447716 21.5 0 21.0523 0 20.5C0 19.9477 0.447715 19.5 1 19.5H3V9.5C3 5.87156 5.57664 2.84493 9 2.15003V1.5ZM5 19.5H16V9.5C16 6.46243 13.5376 4 10.5 4C7.46243 4 5 6.46243 5 9.5V19.5Z" fill="#F8AB27"/>
<path d="M8 23C8 24.3807 9.11929 25.5 10.5 25.5C11.8807 25.5 13 24.3807 13 23V22.5H8V23Z" fill="#F8AB27"/>
</svg>
