<svg width="18" height="18" viewBox="0 0 18 18" fill="none" xmlns="http://www.w3.org/2000/svg">
<path d="M13.4999 17.0897L13.4943 17.0897C10.1137 17.0853 6.87402 15.7512 4.4854 13.3819C2.09712 11.0129 0.754513 7.80239 0.75 4.45475C0.750123 3.59547 1.09424 2.77018 1.70868 2.1607C2.32343 1.55091 3.15849 1.20725 4.03048 1.20725V1.20727L4.03614 1.20723C4.21372 1.20589 4.39099 1.22188 4.56538 1.25495L4.58075 1.25787L4.59622 1.26014C4.76299 1.28462 4.92688 1.32527 5.08554 1.38148L5.08554 1.38149L5.08948 1.38286C5.11093 1.39033 5.12934 1.40298 5.14325 1.41889C5.15711 1.43476 5.16609 1.45338 5.16994 1.47271L5.17212 1.4837L5.17464 1.49462L6.37476 6.70822C6.37478 6.70832 6.37481 6.70842 6.37483 6.70852C6.37898 6.72689 6.37846 6.74595 6.37327 6.76414C6.36805 6.78246 6.35812 6.79981 6.34379 6.81436L6.33709 6.82116L6.33057 6.82813C6.32747 6.83144 6.32485 6.83423 6.32265 6.83655C6.31314 6.84266 6.29537 6.85366 6.26546 6.87086C6.13306 6.947 5.88126 7.07823 5.33373 7.36083L4.69705 7.68944L4.99623 8.34047C5.93475 10.3828 7.5807 12.0214 9.63298 12.9594L10.277 13.2538L10.6079 12.6277C10.8972 12.0803 11.0316 11.8283 11.1095 11.6957C11.1274 11.6651 11.1388 11.6472 11.1451 11.6377C11.1475 11.6354 11.1504 11.6328 11.1538 11.6296L11.1608 11.6231L11.1677 11.6165C11.1824 11.6022 11.2011 11.5913 11.2222 11.5853L11.0198 10.8632L11.2222 11.5853C11.2432 11.5794 11.2655 11.5788 11.2869 11.5836C11.287 11.5836 11.2871 11.5836 11.2872 11.5837L16.5407 12.7735C16.541 12.7736 16.5412 12.7736 16.5414 12.7737C16.5629 12.7788 16.5822 12.789 16.5977 12.8029C16.6134 12.8169 16.6246 12.834 16.6309 12.8524L16.6309 12.8524L16.6338 12.8606C16.6926 13.0246 16.7369 13.1933 16.7664 13.3647C16.7946 13.5406 16.8088 13.7183 16.8089 13.8964C16.7944 14.7502 16.4407 15.5652 15.8227 16.1638C15.2031 16.7638 14.3682 17.0973 13.4999 17.0897Z" stroke="white" stroke-width="1.5"/>
</svg>
