<svg width="24" height="23" viewBox="0 0 24 23" fill="none" xmlns="http://www.w3.org/2000/svg">
<path d="M10.4046 1.97108C11.0407 0.493847 13.1352 0.493844 13.7714 1.97108L15.6221 6.26867C15.8875 6.88484 16.4683 7.30681 17.1363 7.36876L21.7954 7.80089C23.397 7.94942 24.0442 9.94142 22.8359 11.0029L19.3205 14.0911C18.8165 14.5339 18.5947 15.2167 18.7422 15.8711L19.7709 20.4358C20.1246 22.0048 18.4301 23.2359 17.0471 22.4147L13.0238 20.0258C12.4469 19.6832 11.729 19.6832 11.1522 20.0258L7.12886 22.4147C5.7459 23.2359 4.0514 22.0048 4.40503 20.4358L5.43381 15.8711C5.58132 15.2167 5.35948 14.5339 4.85546 14.0911L1.34012 11.0029C0.131771 9.94142 0.779008 7.94942 2.38053 7.80089L7.03968 7.36876C7.7077 7.30681 8.28849 6.88484 8.55384 6.26867L10.4046 1.97108Z" fill="#C4C4C4"/>
</svg>
