<svg width="15" height="13" viewBox="0 0 15 13" fill="none" xmlns="http://www.w3.org/2000/svg">
<path d="M1.68911 7.16697L1.32073 7.52162C1.41873 7.61443 1.55113 7.66651 1.68911 7.66651C1.82709 7.66651 1.95949 7.61443 2.05749 7.52162L1.68911 7.16697ZM3.2296 6.41101C3.32822 6.31748 3.38392 6.19035 3.38445 6.05758C3.38497 5.92481 3.33027 5.79728 3.23239 5.70304C3.18392 5.65638 3.12631 5.6193 3.06284 5.59391C2.99938 5.56853 2.9313 5.55533 2.8625 5.55509C2.72354 5.55459 2.59007 5.60685 2.49145 5.70038L3.2296 6.41101ZM0.885379 5.70038C0.786302 5.60962 0.653873 5.5597 0.516634 5.56136C0.379394 5.56302 0.248332 5.61614 0.151694 5.70926C0.0550553 5.80238 0.000578743 5.92806 4.5847e-06 6.0592C-0.000569574 6.19034 0.0528046 6.31645 0.148624 6.41034L0.885379 5.70038ZM12.1097 3.4285C12.1448 3.48621 12.1916 3.53662 12.2474 3.57677C12.3032 3.61692 12.3668 3.646 12.4346 3.66228C12.5023 3.67856 12.5727 3.68172 12.6418 3.67157C12.7108 3.66142 12.777 3.63818 12.8365 3.60319C12.896 3.56821 12.9475 3.52221 12.9881 3.46789C13.0287 3.41358 13.0575 3.35205 13.0728 3.28694C13.0881 3.22182 13.0896 3.15444 13.0772 3.08876C13.0648 3.02308 13.0388 2.96044 13.0007 2.90452L12.1097 3.4285ZM10.9076 0.905293C10.8491 0.868868 10.7835 0.844007 10.7148 0.832175C10.6461 0.820342 10.5755 0.821778 10.5074 0.836397C10.4392 0.851016 10.3748 0.878523 10.318 0.917296C10.2612 0.956068 10.213 1.00532 10.1764 1.06215C10.1398 1.11899 10.1155 1.18225 10.1048 1.24821C10.0942 1.31417 10.0975 1.38149 10.1146 1.44621C10.1316 1.51093 10.162 1.57173 10.204 1.62503C10.2461 1.67834 10.2988 1.72307 10.3592 1.75658L10.9076 0.905293ZM7.81687 1.00595C7.95419 1.01044 8.08785 0.963133 8.18897 0.874257C8.2901 0.785381 8.35059 0.662065 8.35736 0.53094C8.36414 0.399815 8.31667 0.271403 8.22521 0.173437C8.13374 0.0754698 8.00561 0.0158093 7.8685 0.00733913L7.81687 1.00595ZM7.54966 0.000672819C4.02845 0.000672819 1.16585 2.70787 1.16585 6.05569H2.21237C2.21237 3.26784 4.59845 1.00062 7.54966 1.00062V0.000672819ZM1.16585 6.05569V7.16697H2.21237V6.05569H1.16585ZM2.05888 7.52228L3.2296 6.41101L2.49145 5.70038L1.31934 6.81165L2.05888 7.52228ZM2.05888 6.81232L0.885379 5.70038L0.147926 6.41034L1.32004 7.52095L2.05888 6.81232ZM13.0014 2.90586C12.4771 2.0919 11.7602 1.4069 10.9083 0.905959L10.3599 1.75725C11.0723 2.17599 11.6719 2.74865 12.1104 3.42916L13.0014 2.90586ZM7.8685 0.00733913C7.76207 0.0023045 7.65552 -0.000140554 7.54896 6.23513e-06V0.999954C7.63873 0.999954 7.72803 1.00218 7.81687 1.00662L7.8685 0.00733913ZM13.2937 5.8337L13.6621 5.47839C13.5641 5.38577 13.4319 5.33383 13.294 5.33383C13.1562 5.33383 13.024 5.38577 12.926 5.47839L13.2937 5.8337ZM11.7497 6.589C11.7008 6.63518 11.662 6.6901 11.6353 6.75064C11.6086 6.81118 11.5947 6.87614 11.5943 6.94182C11.5935 7.07446 11.6479 7.20197 11.7455 7.2963C11.8431 7.39062 11.976 7.44403 12.1148 7.44478C12.2536 7.44553 12.3871 7.39356 12.4858 7.30029L11.7497 6.589ZM14.103 7.30029C14.1516 7.34768 14.2096 7.38535 14.2736 7.41111C14.3375 7.43687 14.4063 7.4502 14.4757 7.45033C14.5451 7.45047 14.6139 7.43739 14.678 7.41188C14.7421 7.38637 14.8002 7.34892 14.849 7.30172C14.8978 7.25452 14.9363 7.19852 14.9622 7.13697C14.9881 7.07543 15.0009 7.00957 14.9999 6.94323C14.999 6.8769 14.9842 6.81141 14.9564 6.7506C14.9287 6.68978 14.8885 6.63485 14.8384 6.589L14.103 7.30029ZM2.83192 9.57084C2.75901 9.45796 2.64216 9.37736 2.50707 9.3468C2.37197 9.31623 2.2297 9.33819 2.11156 9.40785C1.99341 9.47751 1.90907 9.58916 1.87708 9.71824C1.84508 9.84733 1.86807 9.98326 1.94097 10.0961L2.83192 9.57084ZM7.16802 11.9947C7.02934 11.9889 6.89391 12.0359 6.79152 12.1255C6.68914 12.2151 6.62819 12.3398 6.62209 12.4724C6.61598 12.6049 6.66522 12.7343 6.75896 12.8321C6.85271 12.9299 6.98329 12.9882 7.12198 12.994L7.16802 11.9947ZM4.08426 12.12C4.20315 12.1885 4.34561 12.209 4.48031 12.177C4.61501 12.1451 4.73092 12.0633 4.80253 11.9497C4.87414 11.8361 4.89558 11.7 4.86215 11.5713C4.82872 11.4426 4.74315 11.3318 4.62427 11.2634L4.08426 12.12ZM7.41221 13C10.9439 13 13.817 10.2948 13.817 6.94498H12.7704C12.7704 9.7315 10.3774 12.0001 7.41221 12.0001V13ZM13.817 6.94498V5.8337H12.7704V6.94498H13.817ZM12.926 5.47839L11.7497 6.589L12.4858 7.30029L13.6621 6.18902L12.926 5.47839ZM12.926 6.18902L14.103 7.30029L14.8384 6.589L13.6621 5.47839L12.926 6.18902ZM7.12128 12.994C7.21802 12.998 7.315 13 7.41221 13V12.0001C7.33035 12.0001 7.24896 11.9983 7.16802 11.9947L7.12128 12.994ZM1.94097 10.0961C2.4772 10.9237 3.21187 11.6175 4.08426 12.12L4.62427 11.2634C3.89456 10.8431 3.28066 10.2629 2.83192 9.57084L1.94097 10.0961Z" fill="black"/>
</svg>
