<svg width="60" height="58" viewBox="0 0 60 58" fill="none" xmlns="http://www.w3.org/2000/svg">
<path d="M7.5 0.75C5.51088 0.75 3.60322 1.60791 2.1967 3.13499C0.790176 4.66207 0 6.73324 0 8.89286V49.6071C0 51.7668 0.790176 53.8379 2.1967 55.365C3.60322 56.8921 5.51088 57.75 7.5 57.75H52.5C54.4891 57.75 56.3968 56.8921 57.8033 55.365C59.2098 53.8379 60 51.7668 60 49.6071V8.89286C60 6.73324 59.2098 4.66207 57.8033 3.13499C56.3968 1.60791 54.4891 0.75 52.5 0.75H7.5ZM52.5 4.82143C53.4946 4.82143 54.4484 5.25038 55.1516 6.01392C55.8549 6.77746 56.25 7.81305 56.25 8.89286V35.3571L42.0863 27.4301C41.7346 27.2388 41.3364 27.1725 40.9481 27.2404C40.5598 27.3084 40.201 27.5072 39.9225 27.8087L26.01 42.9137L16.035 35.6991C15.6748 35.4388 15.2429 35.3217 14.8123 35.3677C14.3817 35.4137 13.979 35.62 13.6725 35.9516L3.75 45.5357V8.89286C3.75 7.81305 4.14509 6.77746 4.84835 6.01392C5.55161 5.25038 6.50544 4.82143 7.5 4.82143H52.5Z" fill="black" fill-opacity="0.1"/>
</svg>
