<svg width="12" height="12" viewBox="0 0 12 12" fill="none" xmlns="http://www.w3.org/2000/svg">
<path fill-rule="evenodd" clip-rule="evenodd" d="M8.835 4.38075C8.72953 4.48609 8.58656 4.54525 8.4375 4.54525C8.28844 4.54525 8.14547 4.48609 8.04 4.38075L6.5625 2.90325V8.4375C6.5625 8.58668 6.50324 8.72976 6.39775 8.83525C6.29226 8.94074 6.14918 9 6 9C5.85082 9 5.70774 8.94074 5.60225 8.83525C5.49676 8.72976 5.4375 8.58668 5.4375 8.4375V2.90325L3.96 4.38075C3.85337 4.48011 3.71233 4.5342 3.56661 4.53163C3.42088 4.52906 3.28184 4.47003 3.17878 4.36697C3.07572 4.26391 3.01669 4.12487 3.01412 3.97914C3.01155 3.83342 3.06564 3.69238 3.165 3.58575L5.6025 1.14825L6 0.75L6.3975 1.1475L8.835 3.585C8.88727 3.63724 8.92874 3.69926 8.95703 3.76753C8.98532 3.8358 8.99988 3.90898 8.99988 3.98288C8.99988 4.05677 8.98532 4.12995 8.95703 4.19822C8.92874 4.26649 8.88727 4.32851 8.835 4.38075ZM1.875 7.3125C1.875 7.16332 1.81574 7.02024 1.71025 6.91475C1.60476 6.80926 1.46168 6.75 1.3125 6.75C1.16332 6.75 1.02024 6.80926 0.914752 6.91475C0.809263 7.02024 0.75 7.16332 0.75 7.3125V9.75C0.75 10.1478 0.908035 10.5294 1.18934 10.8107C1.47064 11.092 1.85218 11.25 2.25 11.25H9.75C10.1478 11.25 10.5294 11.092 10.8107 10.8107C11.092 10.5294 11.25 10.1478 11.25 9.75V7.3125C11.25 7.16332 11.1907 7.02024 11.0852 6.91475C10.9798 6.80926 10.8367 6.75 10.6875 6.75C10.5383 6.75 10.3952 6.80926 10.2898 6.91475C10.1843 7.02024 10.125 7.16332 10.125 7.3125V9.75C10.125 9.84946 10.0855 9.94484 10.0152 10.0152C9.94484 10.0855 9.84946 10.125 9.75 10.125H2.25C2.15054 10.125 2.05516 10.0855 1.98484 10.0152C1.91451 9.94484 1.875 9.84946 1.875 9.75V7.3125Z" fill="#F8AB27"/>
</svg>
