<svg width="61" height="61" viewBox="0 0 61 61" fill="none" xmlns="http://www.w3.org/2000/svg">
<circle cx="30.3361" cy="30.3361" r="29.8361" stroke="#0586E2"/>
<path d="M29.8611 27.0617C32.5458 27.0617 34.7222 24.5855 34.7222 21.5309C34.7222 18.4763 32.5458 16 29.8611 16C27.1764 16 25 18.4763 25 21.5309C25 24.5855 27.1764 27.0617 29.8611 27.0617Z" stroke="#0586E2" stroke-width="2" stroke-linecap="round" stroke-linejoin="round"/>
<path d="M18 43.4964V44.4445H43V43.4964C43 39.9563 43 38.1863 42.3945 36.8342C41.8619 35.6448 41.0119 34.6777 39.9666 34.0717C38.7782 33.3828 37.2225 33.3828 34.1111 33.3828H26.8889C23.7775 33.3828 22.2218 33.3828 21.0334 34.0717C19.988 34.6777 19.1381 35.6448 18.6055 36.8342C18 38.1863 18 39.9563 18 43.4964Z" stroke="#0586E2" stroke-width="2" stroke-linecap="round" stroke-linejoin="round"/>
</svg>
