<svg width="17" height="17" viewBox="0 0 17 17" fill="none" xmlns="http://www.w3.org/2000/svg">
<path d="M8.49967 14.875C4.95801 14.875 0.708008 11.3333 0.708008 8.5C0.708008 5.66667 4.95801 2.125 8.49967 2.125C12.0413 2.125 16.2913 5.66667 16.2913 8.5C16.2913 11.3333 12.0413 14.875 8.49967 14.875ZM8.49967 4.95833C7.56037 4.95833 6.65953 5.33147 5.99534 5.99566C5.33115 6.65985 4.95801 7.56069 4.95801 8.5C4.95801 9.43931 5.33115 10.3401 5.99534 11.0043C6.65953 11.6685 7.56037 12.0417 8.49967 12.0417C9.43898 12.0417 10.3398 11.6685 11.004 11.0043C11.6682 10.3401 12.0413 9.43931 12.0413 8.5C12.0413 7.56069 11.6682 6.65985 11.004 5.99566C10.3398 5.33147 9.43898 4.95833 8.49967 4.95833Z" stroke="black" stroke-width="1.3"/>
</svg>
