<svg width="18" height="24" viewBox="0 0 18 24" fill="none" xmlns="http://www.w3.org/2000/svg">
<path d="M0.015625 5.10254V1.06445C0.015625 0.857252 0.0979347 0.658539 0.244448 0.512026C0.390961 0.365513 0.589674 0.283203 0.796875 0.283203C1.00408 0.283203 1.20279 0.365513 1.3493 0.512026C1.49582 0.658539 1.57813 0.857252 1.57813 1.06445V5.10254C1.58176 6.10531 1.79172 7.09661 2.19493 8.01476C2.59814 8.93291 3.18598 9.75825 3.92188 10.4395V4.74121C3.92202 4.57308 3.97639 4.40949 4.07692 4.27473C4.17746 4.13997 4.31878 4.04123 4.4799 3.99319C4.64102 3.94515 4.81333 3.95037 4.97125 4.00807C5.12916 4.06577 5.26425 4.17288 5.35645 4.31348L6.39941 5.90625C6.40723 5.91797 6.41504 5.93066 6.42188 5.94336C6.57507 6.21389 6.82946 6.41247 7.12908 6.49544C7.4287 6.5784 7.74901 6.53894 8.01953 6.38574C8.29006 6.23254 8.48865 5.97815 8.57161 5.67854C8.65457 5.37892 8.61511 5.05861 8.46192 4.78809L6.30078 1.48828C6.18734 1.31488 6.14743 1.10352 6.18982 0.900688C6.23222 0.697859 6.35345 0.52018 6.52686 0.406738C6.70026 0.293297 6.91162 0.253384 7.11445 0.295782C7.31728 0.338179 7.49496 0.459412 7.6084 0.632812L9.78223 3.95312L9.80566 3.99023C10.1422 4.56691 10.2561 5.24677 10.1258 5.90162C9.99563 6.55647 9.63032 7.14105 9.09881 7.54512C8.56729 7.9492 7.9063 8.14483 7.24048 8.09515C6.57466 8.04546 5.95003 7.75388 5.48438 7.27539L5.48438 18.252H7.04688C7.25408 18.252 7.45279 18.3343 7.5993 18.4808C7.74582 18.6273 7.82812 18.826 7.82812 19.0332C7.82812 19.2404 7.74582 19.4391 7.5993 19.5856C7.45279 19.7321 7.25408 19.8145 7.04688 19.8145H5.48438C5.06997 19.8145 4.67255 19.6498 4.37952 19.3568C4.0865 19.0638 3.92188 18.6664 3.92188 18.252L3.92188 12.4297C2.72275 11.6194 1.73996 10.5281 1.05912 9.25105C0.378281 7.97397 0.0200462 6.54977 0.015625 5.10254ZM14.0781 19.0332C14.0781 19.2404 14.1604 19.4391 14.3069 19.5856C14.4535 19.7321 14.6522 19.8145 14.8594 19.8145H16.4219C16.8363 19.8145 17.2337 19.6498 17.5267 19.3568C17.8198 19.0638 17.9844 18.6664 17.9844 18.252L17.9844 4.9707C17.9844 4.7635 17.9021 4.56479 17.7556 4.41828C17.609 4.27176 17.4103 4.18945 17.2031 4.18945C16.9959 4.18945 16.7972 4.27176 16.6507 4.41828C16.5042 4.56479 16.4219 4.7635 16.4219 4.9707L16.4219 18.252H14.8594C14.6522 18.252 14.4535 18.3343 14.3069 18.4808C14.1604 18.6273 14.0781 18.826 14.0781 19.0332ZM7.27539 14.8984C7.34795 14.9711 7.43411 15.0287 7.52895 15.068C7.6238 15.1073 7.72546 15.1276 7.82813 15.1276C7.93079 15.1276 8.03245 15.1073 8.1273 15.068C8.22214 15.0287 8.3083 14.9711 8.38086 14.8984L10.1719 13.1064V22.9395C10.1719 23.1467 10.2542 23.3454 10.4007 23.4919C10.5472 23.6384 10.7459 23.7207 10.9531 23.7207C11.1603 23.7207 11.359 23.6384 11.5056 23.4919C11.6521 23.3454 11.7344 23.1467 11.7344 22.9395V13.1064L13.5254 14.8984C13.672 15.045 13.8708 15.1274 14.0781 15.1274C14.2854 15.1274 14.4843 15.045 14.6309 14.8984C14.7775 14.7518 14.8598 14.553 14.8598 14.3457C14.8598 14.1384 14.7775 13.9396 14.6309 13.793L11.5059 10.668C11.4333 10.5953 11.3471 10.5377 11.2523 10.4984C11.1575 10.4591 11.0558 10.4388 10.9531 10.4388C10.8505 10.4388 10.7488 10.4591 10.654 10.4984C10.5591 10.5377 10.4729 10.5953 10.4004 10.668L7.27539 13.793C7.20275 13.8655 7.14513 13.9517 7.10581 14.0465C7.0665 14.1414 7.04626 14.243 7.04626 14.3457C7.04626 14.4484 7.0665 14.55 7.10581 14.6449C7.14513 14.7397 7.20275 14.8259 7.27539 14.8984Z" fill="#111111"/>
</svg>
