<svg width="243" height="309" viewBox="0 0 243 309" fill="none" xmlns="http://www.w3.org/2000/svg">
<path d="M121.167 308.14C188.085 308.14 242.333 306.547 242.333 304.583C242.333 302.618 188.085 301.026 121.167 301.026C54.2481 301.026 0 302.618 0 304.583C0 306.547 54.2481 308.14 121.167 308.14Z" fill="#D8D8D8"/>
<path d="M223.087 301.528L228.746 270.877H190.26L195.919 301.528C196.277 303.469 197.97 304.877 199.943 304.877H219.062C221.036 304.877 222.729 303.469 223.087 301.528Z" fill="#0586E2"/>
<path opacity="0.4" d="M223.087 301.528L228.746 270.877H190.26L195.919 301.528C196.277 303.469 197.97 304.877 199.943 304.877H219.062C221.036 304.877 222.729 303.469 223.087 301.528Z" fill="white"/>
<path d="M224.667 243.137C219.601 241.802 211.859 252.319 209.508 262.572V247.633C210.69 245.537 212.943 242.384 217.034 239.052C223.396 233.87 229.252 227.221 224.177 225.884C219.42 224.631 212.307 233.824 209.508 243.437V224.253C210.328 222.98 211.671 221.311 213.817 219.563C217.827 216.298 221.517 212.107 218.319 211.264C215.543 210.533 211.493 215.447 209.508 220.989V214.771C209.836 212.848 210.3 210.101 211.572 207.292C214.521 200.785 216.114 194.08 212.226 194.579C208.334 195.078 205.811 206.668 207.939 215.566V218.766C206.502 212.255 201.569 205.511 198.35 206.359C195.151 207.201 198.842 211.392 202.851 214.658C205.903 217.144 207.331 219.47 207.938 220.722V235.835C205.632 225.53 197.836 214.894 192.743 216.236C187.667 217.573 193.524 224.223 199.886 229.404C204.694 233.319 206.964 236.988 207.939 238.984V257.106C205.475 246.99 197.878 236.781 192.881 238.097C187.805 239.434 192.158 244.293 199.308 250.171C204.167 254.166 206.769 258.381 207.939 260.673V270.878H209.508V265.813C210.503 263.801 212.775 260.175 217.524 256.307C223.886 251.123 229.743 244.474 224.667 243.137Z" fill="#0586E2"/>
<path opacity="0.2" d="M224.667 243.137C219.601 241.802 211.859 252.319 209.508 262.572V247.633C210.69 245.537 212.943 242.384 217.034 239.052C223.396 233.87 229.252 227.221 224.177 225.884C219.42 224.631 212.307 233.824 209.508 243.437V224.253C210.328 222.98 211.671 221.311 213.817 219.563C217.827 216.298 221.517 212.107 218.319 211.264C215.543 210.533 211.493 215.447 209.508 220.989V214.771C209.836 212.848 210.3 210.101 211.572 207.292C214.521 200.785 216.114 194.08 212.226 194.579C208.334 195.078 205.811 206.668 207.939 215.566V218.766C206.502 212.255 201.569 205.511 198.35 206.359C195.151 207.201 198.842 211.392 202.851 214.658C205.903 217.144 207.331 219.47 207.938 220.722V235.835C205.632 225.53 197.836 214.894 192.743 216.236C187.667 217.573 193.524 224.223 199.886 229.404C204.694 233.319 206.964 236.988 207.939 238.984V257.106C205.475 246.99 197.878 236.781 192.881 238.097C187.805 239.434 192.158 244.293 199.308 250.171C204.167 254.166 206.769 258.381 207.939 260.673V270.878H209.508V265.813C210.503 263.801 212.775 260.175 217.524 256.307C223.886 251.123 229.743 244.474 224.667 243.137Z" fill="white"/>
<path d="M231.116 269.433H187.891V273.641H231.116V269.433Z" fill="#0586E2"/>
<path opacity="0.6" d="M231.116 269.433H187.891V273.641H231.116V269.433Z" fill="white"/>
<path d="M177.263 13.447H46.6445V281.202H177.263V13.447Z" fill="#0586E2"/>
<path opacity="0.2" d="M177.263 13.447H46.6445V281.202H177.263V13.447Z" fill="black"/>
<path d="M173.44 277.379L173.44 17.2696L50.4684 17.2696L50.4684 277.379H173.44Z" fill="#0586E2"/>
<path opacity="0.9" d="M173.441 17.27H50.4707V281.2H173.441V17.27Z" fill="white"/>
<path opacity="0.1" d="M173.441 17.27H74.3213V281.2H173.441V17.27Z" fill="black"/>
<path d="M4.7168 0V281.202H46.6448V13.447L4.7168 0Z" fill="#0586E2"/>
<path opacity="0.2" d="M4.7168 0V281.202H46.6448V13.447L4.7168 0Z" fill="white"/>
<path d="M15.6834 144.318C15.6834 148.079 14.2675 151.128 12.5205 151.128C10.7735 151.128 9.35645 148.079 9.35645 144.318C9.35645 140.557 10.7725 137.508 12.5205 137.508C14.2665 137.509 15.6834 140.557 15.6834 144.318Z" fill="#0586E2"/>
<path d="M4.7169 0H0.920898V281.202H4.7169V0Z" fill="#0586E2"/>
<path opacity="0.2" d="M4.7169 0H0.920898V281.202H4.7169V0Z" fill="black"/>
<path d="M104.593 76.6778L95.4634 95.2778C94.6334 96.9878 93.8034 98.7078 92.9734 100.418C92.2334 101.948 91.5034 103.478 90.7934 104.998C89.4134 107.938 88.1034 110.858 86.9234 113.728C86.3434 115.198 85.7834 116.718 85.4734 117.818C85.1634 118.948 84.9334 120.478 84.7834 122.038C84.4734 125.188 84.3634 128.578 84.3134 131.968C84.2634 138.758 84.3734 145.738 84.5334 152.638L77.6734 153.608C75.9734 146.658 74.6334 139.728 73.7434 132.578C73.3034 128.988 72.9634 125.388 72.9134 121.558C72.9034 119.618 72.9434 117.658 73.2934 115.358C73.7134 113.038 74.2634 111.238 74.8434 109.418C76.0134 105.838 77.2634 102.478 78.6234 99.1578C79.9734 95.8378 81.3634 92.5678 82.8234 89.3478C85.7334 82.8778 88.8134 76.5778 92.1334 70.2978L104.593 76.6778Z" fill="#0586E2"/>
<path opacity="0.2" d="M92.973 75.8678V100.418C92.233 101.948 91.503 103.478 90.793 104.998L92.973 75.8678Z" fill="black"/>
<path d="M70.8518 165.186V158.922C70.8518 158.705 71.0288 158.529 71.2458 158.529H74.6448V157.518H71.2458C70.4708 157.518 69.8408 158.148 69.8408 158.923V165.187H70.8518V165.186Z" fill="#263238"/>
<path d="M94.3643 158.922V165.186H95.3753V158.922C95.3753 158.147 94.7453 157.517 93.9703 157.517H90.5713V158.528H93.9703C94.1873 158.528 94.3643 158.705 94.3643 158.922Z" fill="#263238"/>
<path d="M108.707 167.836V199.44C108.707 200.906 107.514 202.1 106.047 202.1H60.4364C58.9704 202.1 57.7764 200.907 57.7764 199.44V167.836C57.7764 166.37 58.9694 165.186 60.4364 165.186H106.047C107.514 165.186 108.707 166.369 108.707 167.836Z" fill="#263238"/>
<g opacity="0.5">
<path d="M108.707 167.836V199.44C108.707 200.906 107.514 202.1 106.047 202.1H60.4364C58.9704 202.1 57.7764 200.907 57.7764 199.44V167.836C57.7764 166.37 58.9694 165.186 60.4364 165.186H106.047C107.514 165.186 108.707 166.369 108.707 167.836Z" fill="white"/>
</g>
<path d="M102.013 165.186H99.9902V202.099H102.013V165.186Z" fill="#263238"/>
<path d="M66.4957 165.186H64.4727V202.099H66.4957V165.186Z" fill="#263238"/>
<path d="M91.6122 156.337H73.2402V159.708H91.6122V156.337Z" fill="#263238"/>
<path opacity="0.3" d="M91.6122 156.337H73.2402V159.708H91.6122V156.337Z" fill="white"/>
<path d="M84.595 151.698C84.595 151.698 88.682 154.839 89.157 156.103C89.632 157.367 87.717 160.37 86.783 160.315C85.473 160.237 87.162 156.911 87.162 156.911L79.126 156.723C79.126 156.723 77.656 156.174 77.673 153.607C79.704 151.858 81.897 151.253 84.595 151.698Z" fill="#B55B52"/>
<path d="M88.2854 159.232C88.2854 159.232 89.1644 161.155 88.0344 161.695C86.9044 162.236 80.3014 161.966 78.7294 161.148C77.1574 160.33 78.0094 158.059 79.2084 157.767C80.4064 157.477 86.8364 156.747 88.2854 159.232Z" fill="#B55B52"/>
<path d="M71.3066 279.987L68.3096 293.88L73.8236 295.538L79.3776 283.123L71.3066 279.987Z" fill="#B55B52"/>
<path d="M72.4753 293.877C72.4753 293.877 74.9703 290.871 75.9333 291.457C76.8963 292.043 76.4343 296.243 76.4343 296.243C76.4343 296.243 81.6813 299.355 83.2403 299.795C84.7983 300.235 85.8843 301.407 85.4213 304.537L66.1104 300.37C66.1104 300.37 67.7444 293.43 68.0374 292.244C68.3304 291.057 69.7084 292.917 69.7084 292.917L72.4753 293.877Z" fill="#263238"/>
<path d="M118.394 140.028C117.581 144.316 117.168 154.632 116.633 166.65C116.262 174.895 115.841 183.938 115.194 192.382C114.388 203.19 113.218 213.014 111.35 218.905C104.786 239.67 78.8726 286.186 78.8726 286.186L69.8066 284.225C69.8066 284.225 84.2476 234.366 85.8366 228.769C87.4256 223.172 90.8456 203.098 90.8316 181.355C90.8096 147.178 90.8316 139.154 90.8316 139.154L118.394 140.028Z" fill="#263238"/>
<path opacity="0.2" d="M117.922 168.598C117.071 176.808 116.125 185.811 114.988 194.202C112.417 178.107 111.586 154.185 111.586 154.185L117.922 168.598Z" fill="black"/>
<path d="M68.9492 284.379L79.5922 286.675L81.1052 283.449L69.4362 280.783L68.9492 284.379Z" fill="#0586E2"/>
<path d="M119.699 283.857V298.069L125.439 298.526L128.249 285.22L119.699 283.857Z" fill="#B55B52"/>
<path d="M123.771 297.188C123.771 297.188 125.576 293.723 126.641 294.093C127.706 294.463 128.14 298.666 128.14 298.666C128.14 298.666 133.925 300.601 135.542 300.703C137.158 300.805 138.467 301.721 138.674 304.878H118.919C118.919 304.878 119.052 297.75 119.088 296.528C119.124 295.306 120.863 296.833 120.863 296.833L123.771 297.188Z" fill="#263238"/>
<path d="M112.863 140.652C110.643 142.123 111.922 151.815 112.266 155.996C112.912 163.964 117.927 175.808 118.614 186.157C119.416 198.142 119.988 210.143 119.702 218.471C118.966 239.855 119.129 288.318 119.129 288.318H128.406C128.406 288.318 139.303 240.15 141.34 218.471C143.042 200.498 141.626 148.764 141.339 137.573L112.863 140.652Z" fill="#263238"/>
<path d="M118.321 288.647H129.208L130.007 285.174L118.038 285.029L118.321 288.647Z" fill="#0586E2"/>
<path d="M136.097 44.2048C136.205 44.8648 135.942 45.4568 135.51 45.5278C135.078 45.5978 134.641 45.1198 134.534 44.4598C134.426 43.7998 134.689 43.2068 135.121 43.1368C135.552 43.0668 135.99 43.5448 136.097 44.2048Z" fill="#263238"/>
<path d="M135.182 44.9848C135.182 44.9848 136.61 48.3428 138.126 49.9408C137.111 50.9398 135.33 50.5428 135.33 50.5428L135.182 44.9848Z" fill="#A02724"/>
<path d="M132.655 40.7178C132.572 40.7038 132.494 40.6588 132.44 40.5868C132.324 40.4348 132.354 40.2178 132.506 40.1028C134.027 38.9438 135.534 39.4628 135.599 39.4848C135.779 39.5488 135.872 39.7468 135.808 39.9268C135.744 40.1058 135.544 40.1988 135.368 40.1368C135.319 40.1198 134.137 39.7288 132.924 40.6528C132.845 40.7138 132.747 40.7348 132.655 40.7178Z" fill="#263238"/>
<path d="M124.123 60.8018L115.717 48.5188C114.774 54.4778 112.383 63.5258 110.118 66.9628C110.118 66.9628 112.27 72.6288 122.969 69.0158C122.969 69.0158 121.515 64.4068 124.123 60.8018Z" fill="#B55B52"/>
<path d="M109.238 64.3008C109.238 64.3008 110.261 60.8808 113.011 60.0218C113.011 60.0218 120.58 62.2368 123.338 62.1618C123.338 62.1618 124.55 63.1868 124.423 64.7958C124.423 64.7958 112.252 65.1668 109.238 64.3008Z" fill="#0586E2"/>
<path d="M115.245 43.2028C115.881 50.4148 115.887 54.6678 119.634 58.2788C125.271 63.7098 134.099 60.1638 135.63 52.9078C137.009 46.3758 135.737 35.6798 128.589 32.9938C121.548 30.3468 114.609 35.9908 115.245 43.2028Z" fill="#B55B52"/>
<path d="M135.362 36.0388C131.53 41.3748 134.3 43.2108 133.269 45.4818C132.238 47.7528 130.225 42.7358 128.179 48.3258C126.133 53.9158 118.586 55.4168 118.586 55.4168C116.899 53.8278 114.965 54.0348 114.965 54.0348C99.3941 37.1078 113.623 33.5358 113.623 33.5358C113.623 33.5358 114.267 30.6758 118.532 29.3968C121.945 28.3738 122.651 29.1378 127.513 28.4408C132.375 27.7438 134.718 27.0698 137.059 29.1418C138.905 30.7748 135.362 36.0388 135.362 36.0388Z" fill="#263238"/>
<path d="M126.913 45.5498C127.064 47.4398 127.979 49.2028 129.059 50.3468C130.684 52.0658 132.321 50.9428 132.56 48.8028C132.775 46.8778 132.188 43.6628 130.225 42.7358C128.291 41.8228 126.74 43.3888 126.913 45.5498Z" fill="#B55B52"/>
<path d="M145.053 123.668C144.963 128.078 144.743 132.648 144.363 137.378C144.223 139.188 144.053 141.018 143.863 142.878C120.653 151.048 88.543 142.078 88.543 142.078C89.603 137.528 91.493 123.908 92.293 113.958C93.293 101.568 93.443 91.9478 91.553 78.5078C90.633 71.9778 92.093 65.8778 98.333 65.0678L101.093 64.7578C111.573 63.4078 123.673 63.8378 133.533 65.6478C138.563 66.5678 142.323 70.9678 142.743 76.2978C143.673 88.2878 145.493 104.428 145.053 123.668Z" fill="#0586E2"/>
<path opacity="0.2" d="M109.238 64.3008C109.238 64.3008 110.958 67.2378 116.145 67.2378C121.332 67.2378 124.432 64.4268 124.432 64.4268L126.215 64.6008C126.215 64.6008 120.637 69.2378 115.203 68.5498C109.771 67.8628 109.238 64.3008 109.238 64.3008Z" fill="black"/>
<path opacity="0.2" d="M145.053 123.668C144.963 128.078 144.743 132.648 144.363 137.378C141.283 134.718 136.843 130.188 135.183 124.868C132.533 116.368 130.163 89.3878 130.163 89.3878L145.053 123.668Z" fill="black"/>
<path d="M142.186 74.2138C143.204 80.8068 144.181 87.4948 145.104 94.1168C145.581 97.4318 146.046 100.737 146.564 104.013C147.043 107.292 147.616 110.542 148.226 113.628C148.551 115.184 148.844 116.584 149.277 117.837L149.604 118.794L150.033 119.829C150.294 120.515 150.625 121.236 150.951 121.954C152.265 124.83 153.804 127.758 155.357 130.689C158.52 136.528 161.762 142.539 165.085 148.372L160.818 152.574C155.523 148.285 150.727 141.774 146.664 136.138C144.628 133.317 142.672 130.43 140.801 127.32C140.335 126.539 139.864 125.766 139.421 124.909L138.756 123.649C138.538 123.204 138.327 122.72 138.115 122.255C137.261 120.372 136.666 118.487 136.128 116.769C134.069 109.824 132.68 103.149 131.399 96.3778C130.117 89.6198 129.109 82.8928 128.308 76.0478L142.186 74.2138Z" fill="#0586E2"/>
<path d="M160.816 152.574C160.816 152.574 161.779 163.168 163.712 163.321C164.219 163.361 164.424 162.201 164.17 159.403C164.17 159.403 166.918 165.509 167.681 166.171C171.378 169.375 171.192 160.014 169.767 156.259C168.415 152.696 165.083 148.372 165.083 148.372L160.816 152.574Z" fill="#B55B52"/>
</svg>
